<?xml version="1.0" encoding="UTF-8"?>
<svg id="Capa_1" data-name="Capa 1" xmlns="http://www.w3.org/2000/svg" viewBox="0 0 512 512">
  <defs>
    <style>
      .cls-1 {
        fill: #121212;
      }

      .cls-2 {
        fill: #fff;
      }
    </style>
  </defs>
  <rect class="cls-1" x="0" y="0" width="512" height="512" rx="256" ry="256"/>
  <path class="cls-2" d="M176.43,377.09c-2.54,0-4.62-.81-6.23-2.42-1.62-1.61-2.42-3.68-2.42-6.23v-224.87c0-2.54.81-4.61,2.42-6.23s3.69-2.42,6.23-2.42h158.8c2.53,0,4.67.81,6.4,2.42,1.73,1.62,2.59,3.69,2.59,6.23v34.94c0,2.54-.86,4.62-2.59,6.23-1.73,1.62-3.87,2.42-6.4,2.42h-106.56v50.86h99.64c2.53,0,4.67.86,6.4,2.59s2.6,3.87,2.6,6.4v34.6c0,2.31-.87,4.33-2.6,6.06s-3.87,2.6-6.4,2.6h-99.64v78.18c0,2.54-.81,4.62-2.42,6.23s-3.69,2.42-6.23,2.42h-43.59Z"/>
</svg>